<svg id="Layer_1" data-name="Layer 1" xmlns="http://www.w3.org/2000/svg" viewBox="0 0 600 111.4"><defs><style>.cls-1{fill:#d2d1ce;}.cls-2{fill:#4e768c;}</style></defs><polygon class="cls-1" points="48.1 0 48.1 30.7 75.2 77.7 48.1 93.3 48.1 111.1 96.2 83.3 48.1 0"/><polygon class="cls-2" points="21 78 48.1 31 48.1 0.3 0 83.6 48.1 111.4 48.1 93.6 21 78"/><path class="cls-2" d="M356.5,13.9h2.7V97.4h-2.7ZM124.5,28c0-.1,10.1-.9,17.1-.9,13.9,0,29.1,1.4,29.1,17,0,12.8-9.3,17.7-17.9,19.4a45.41,45.41,0,0,1-8.2.7h-5.7V83.6H124.5Zm20.4,29.1c7.3,0,12.3-3.3,12.3-11.9,0-9.7-6.5-11.2-13.4-11.2a31.7,31.7,0,0,0-4.8.4V56.3A16.67,16.67,0,0,0,144.9,57.1ZM180,28c5.2-.3,12.5-.9,19.1-.9,11.3,0,27.1,1.3,27.1,15.2,0,8.4-6.1,14.2-14.4,16.3l19,24.9H213.5l-13.9-23V54.9c7.2,0,12.6-4.1,12.6-10.9,0-7.1-5.1-10.1-11.8-10.1a28.67,28.67,0,0,0-5.9.7V83.4H180V28Zm63.7,0h16.7l11.9,36.3L285.8,28h14.8l4.3,55.5H291.8L289,45.8,274.8,83.5h-9L252.5,45.8l-4.1,37.7H237.9ZM318,28h14.6V83.5H318Zm64,5.1s2.6-.3,4.4-.3c3.6,0,7.6.4,7.6,4.6,0,5.9-6.6,5.5-8.7,5.5v5.7H382Zm5.1,8.2c2.2,0,3.8-1,3.8-3.5,0-2.8-2-3.3-4.1-3.3a9.44,9.44,0,0,0-1.4.1V41A3.12,3.12,0,0,0,387.1,41.3Zm12.3,7.4h-3.1v-12h3.1v1.6c.6-.4,2-1.9,3.6-1.9a2.9,2.9,0,0,1,1.2.2c-.1,1-.3,2.8-.3,2.8a4.3,4.3,0,0,0-2.2-.6,2,2,0,0,0-2.2,2.3l-.1,7.6Zm8.3-17.4c.8,0,1.7.3,1.7,1.5s-.9,1.5-1.8,1.5-1.7-.3-1.7-1.5A1.73,1.73,0,0,1,407.7,31.3Zm1.5,5.4v12h-3.1v-12Zm19.7,5.7c0-2.6-.2-3.9-2.2-3.9a2.23,2.23,0,0,0-2.5,2.2v8H421V42.4c0-2.6-.2-3.9-2.2-3.9a2.36,2.36,0,0,0-2.6,2.4v7.8H413v-12h3.1v1.7l1-.9a4.82,4.82,0,0,1,3-1.1c1.8,0,3.1.7,3.6,2,0,0,.5-.4,1.1-1a4.82,4.82,0,0,1,3-1.1c2.3,0,3.6,1,4,2.8a12.79,12.79,0,0,1,.1,2.1v7.4h-3.2V42.4Zm11.4-4.2a13.09,13.09,0,0,0-4,.9l-.1-1.8a14.16,14.16,0,0,1,4.8-.8c1.9,0,3.5.5,4.1,1.2.8.9.9,2.1.9,3.9v7.2h-3.1V47.2c-.9.7-1.9,1.9-3.9,1.9s-3.9-1.1-3.9-3.6c0-3.4,3.2-3.9,5.4-4.1l2.4-.3C442.8,39.3,442.3,38.2,440.3,38.2Zm2.5,6.4V42.8a15.44,15.44,0,0,0-2-.2c-1.6,0-2.7.9-2.7,2.2a1.94,1.94,0,0,0,2.1,2.1A2.51,2.51,0,0,0,442.8,44.6Zm9.6,4.1h-3.1v-12h3.1v1.6c.6-.4,2-1.9,3.6-1.9a2.9,2.9,0,0,1,1.2.2c-.1,1-.3,2.8-.3,2.8a4.3,4.3,0,0,0-2.2-.6,2,2,0,0,0-2.2,2.3l-.1,7.6Zm11.5-2.9c.3-1,.7-2,1-3a33.35,33.35,0,0,0,1.6-6.1h3.1l-6.4,16.4h-2.8l2.3-4.9-1.2-.9-3.9-10.6h3.3Zm13.6-12.7s2.7-.3,4.8-.3c4.9,0,7.1,1,7.1,4.3,0,2.4-1.8,4-4.3,4.6,1.9,2.3,3.7,4.7,5.6,7h-3.9L482.2,42V40.7h.5c2.5,0,3.5-1.5,3.5-3.4,0-2.2-1.5-3.1-3.6-3.1a6.54,6.54,0,0,0-1.8.3V48.7h-3.3V33.1Zm24.9,14.5a8.23,8.23,0,0,1-4.8,1.5c-3.5,0-5.8-2-5.8-6.4,0-4.9,2.9-6.2,5.9-6.2a5.37,5.37,0,0,1,3.6,1.2c1.3,1.2,1.3,3.4,1.3,5.4h-7.8a4,4,0,0,0,4.3,4,8.55,8.55,0,0,0,3.3-.6v1.1Zm-2.8-6.1c0-2.2-.7-3.5-2.5-3.5-1.6,0-2.3,1.5-2.3,3.5Zm9.3,7.6a13.35,13.35,0,0,1-4.3-.6c.1-.8.2-2.2.2-2.6a8.76,8.76,0,0,0,4.3,1.6c1.4,0,2-.6,2-1.5,0-1.3-1.3-1.6-2.7-2.1-1.7-.5-3.8-1.3-3.8-3.7s2.2-3.7,4.8-3.7a9.84,9.84,0,0,1,3.8.6c-.1.8-.2,2.2-.2,2.5a7.82,7.82,0,0,0-3.9-1.5c-1.1,0-1.8.4-1.8,1.3s.9,1.5,2.6,2,4,1.2,4,3.8C514,48.1,511.3,49.1,508.9,49.1Zm9.7-17.8c.8,0,1.7.3,1.7,1.5s-.9,1.5-1.8,1.5-1.7-.3-1.7-1.5A1.61,1.61,0,0,1,518.6,31.3Zm1.5,5.4v12H517v-12Zm11.9-5h3.1V48.8h-2.7l-.4-1.5c-.4.3-.7.6-1.1.9a3.83,3.83,0,0,1-2.7.9c-3.3,0-5-2.9-5-6.1a5.91,5.91,0,0,1,6.2-6.3,5.07,5.07,0,0,1,2.6.7Zm0,8a3.12,3.12,0,0,0-2.7-1.3c-2,0-3,1.8-3,3.9,0,2.5,1.1,4.6,3.4,4.6a2.44,2.44,0,0,0,2.3-2.7V39.7Zm16.7,7.9a8.23,8.23,0,0,1-4.8,1.5c-3.5,0-5.8-2-5.8-6.4,0-4.9,2.9-6.2,5.9-6.2a5.37,5.37,0,0,1,3.6,1.2c1.3,1.2,1.3,3.4,1.3,5.4h-7.8a4,4,0,0,0,4.3,4,8.55,8.55,0,0,0,3.3-.6v1.1Zm-2.8-6.1c0-2.2-.7-3.5-2.5-3.5-1.6,0-2.3,1.5-2.3,3.5Zm8.8-3.1a9.52,9.52,0,0,1,1.1-.9,4.62,4.62,0,0,1,3-1.1c2.2,0,3.5,1,3.9,2.8a11.49,11.49,0,0,1,.2,2.1v7.4h-3.2V42.4c0-2.6-.3-3.9-2.4-3.9a2.47,2.47,0,0,0-2.6,2.4v7.8h-3.1v-12h3.1v1.7ZM573.4,47v1.3a5.83,5.83,0,0,1-3,.8c-3.1,0-3.6-2-3.6-3.7V38.2H565V36.7h1.8V33.8H570v2.9h3.2v1.5H570v5.9c0,1.8.3,3.2,2,3.2A3.44,3.44,0,0,0,573.4,47Zm4.3-15.7c.8,0,1.7.3,1.7,1.5s-.9,1.5-1.8,1.5-1.7-.3-1.7-1.5A1.61,1.61,0,0,1,577.7,31.3Zm1.5,5.4v12H576v-12Zm8.5,1.5a13.09,13.09,0,0,0-4,.9l-.1-1.8a14.16,14.16,0,0,1,4.8-.8c1.9,0,3.5.5,4.1,1.2.8.9.9,2.1.9,3.9v7.2h-3.1V47.2c-.9.7-1.9,1.9-3.9,1.9s-3.9-1.1-3.9-3.6c0-3.4,3.2-3.9,5.4-4.1l2.4-.3C590.2,39.3,589.7,38.2,587.7,38.2Zm2.5,6.4V42.8a15.44,15.44,0,0,0-2-.2c-1.6,0-2.7.9-2.7,2.2a1.94,1.94,0,0,0,2.1,2.1A2.51,2.51,0,0,0,590.2,44.6Zm6.7,4.1V31.6H600V48.7ZM383.2,60.9h3.3l4.4,11.3c1.6-3.8,3.1-7.5,4.6-11.3h3c.4,5.2.9,10.4,1.3,15.7h-3.1l-.8-11-4.5,11h-2c-1.4-3.7-2.9-7.3-4.3-11-.4,4.3-.8,7.6-1.1,11h-2.4C382.1,71.3,382.6,66.1,383.2,60.9Zm25.6,3.4c3.3,0,6,2,6,6.3,0,4.7-3.5,6.3-6.6,6.3-3.3,0-6-2-6-6.3C402.2,65.9,405.7,64.3,408.8,64.3Zm.2,10.9c1.9,0,2.7-1.8,2.7-4,0-3.9-2.1-5.2-3.7-5.2-1.9,0-2.7,1.8-2.7,4C405.3,73.8,407.4,75.2,409,75.2Zm11.7,1.4h-3.1v-12h3.1v1.6c.6-.4,2-1.9,3.6-1.9a2.9,2.9,0,0,1,1.2.2c-.1,1-.3,2.8-.3,2.8a4.3,4.3,0,0,0-2.2-.6,2,2,0,0,0-2.2,2.3l-.1,7.6Zm13.8-1.8v1.3a5.83,5.83,0,0,1-3,.8c-3.1,0-3.6-2-3.6-3.7V66h-1.8V64.5h1.8V61.6h3.2v2.9h3.2V66H431v5.9c0,1.8.3,3.2,2,3.2A3.64,3.64,0,0,0,434.5,74.8Zm11.4-10.3h1.9v9.4a8.85,8.85,0,0,1-.4,2.9,6.46,6.46,0,0,1-6,4.2,9.84,9.84,0,0,1-4.5-.9l.2-2.7a10.67,10.67,0,0,0,4.9,1.5c2.5,0,2.8-1.2,2.8-3.3V74.5a4.85,4.85,0,0,1-3.6,1.4c-3.2,0-5-2.4-5-5.6a5.56,5.56,0,0,1,5.8-5.9,5.69,5.69,0,0,1,3.1.8C445.2,65.1,445.7,64.7,445.9,64.5Zm-1.2,3.1a3.23,3.23,0,0,0-2.8-1.4c-1.4,0-2.5,1.1-2.5,3.6,0,1.6.6,4.1,3.1,4.1,1.6,0,2.2-1,2.2-2.6V67.6ZM455.9,66a13.09,13.09,0,0,0-4,.9l-.1-1.8a14.16,14.16,0,0,1,4.8-.8c1.9,0,3.5.5,4.1,1.2.8.9.9,2.1.9,3.9v7.2h-3.1V75c-.9.7-1.9,1.9-3.9,1.9s-3.9-1.1-3.9-3.6c0-3.4,3.2-3.9,5.4-4.1l2.4-.3C458.4,67.1,457.9,66,455.9,66Zm2.6,6.4V70.6a15.44,15.44,0,0,0-2-.2c-1.6,0-2.7.9-2.7,2.2a1.94,1.94,0,0,0,2.1,2.1A2.44,2.44,0,0,0,458.5,72.4Zm15.6-7.9H476v9.4a8.85,8.85,0,0,1-.4,2.9,6.46,6.46,0,0,1-6,4.2,9.84,9.84,0,0,1-4.5-.9l.2-2.7a10.67,10.67,0,0,0,4.9,1.5c2.5,0,2.8-1.2,2.8-3.3V74.5a4.85,4.85,0,0,1-3.6,1.4c-3.2,0-5-2.4-5-5.6a5.56,5.56,0,0,1,5.8-5.9,5.69,5.69,0,0,1,3.1.8C473.3,65.1,473.8,64.7,474.1,64.5Zm-1.3,3.1a3.23,3.23,0,0,0-2.8-1.4c-1.4,0-2.5,1.1-2.5,3.6,0,1.6.6,4.1,3.1,4.1,1.6,0,2.2-1,2.2-2.6V67.6Zm16.4,7.8a8.23,8.23,0,0,1-4.8,1.5c-3.5,0-5.8-2-5.8-6.4,0-4.9,2.9-6.2,5.9-6.2a5.37,5.37,0,0,1,3.6,1.2c1.3,1.2,1.3,3.4,1.3,5.4h-7.8a4,4,0,0,0,4.3,4,8.55,8.55,0,0,0,3.3-.6v1.1Zm-2.8-6.1c0-2.2-.7-3.5-2.5-3.5-1.6,0-2.3,1.5-2.3,3.5Zm7.8,4.1c1,0,1.7.4,1.7,1.8,0,2.3-2.9,5.5-2.9,5.5l-1-.6a6.34,6.34,0,0,0,1.1-2.8c0-1-.9-1.1-.9-2.2A1.81,1.81,0,0,1,494.2,73.4Zm11.7-12.5h3.3V76.6h-3.3Zm10,5.3a9.52,9.52,0,0,1,1.1-.9,4.62,4.62,0,0,1,3-1.1c2.2,0,3.5,1,3.9,2.8a11.49,11.49,0,0,1,.2,2.1v7.4h-3.2V70.2c0-2.6-.3-3.9-2.4-3.9a2.47,2.47,0,0,0-2.6,2.4v7.8h-3.1v-12h3.1v1.7Zm13.8,3.6c0,3.2,1.6,5.1,4.1,5.1a7.07,7.07,0,0,0,2.9-.6v1.3a7.75,7.75,0,0,1-4.5,1.4c-3.2,0-5.5-2.1-5.5-6.3,0-4.8,2.6-6.3,5.7-6.3a11.3,11.3,0,0,1,4.3.6l-.2,2.4a7.53,7.53,0,0,0-4.1-1.5C530.2,65.8,529.7,67.8,529.7,69.8Zm11.5,3.6a1.58,1.58,0,0,1,1.8,1.8,1.75,1.75,0,0,1-1.9,1.8,1.58,1.58,0,0,1-1.8-1.8C539.3,73.8,540.2,73.4,541.2,73.4Z"/></svg>